<svg
	width="258"
	height="233"
	viewBox="0 0 258 233"
	fill="none"
	xmlns="http://www.w3.org/2000/svg"
>
	<path
		d="M230.839 112.577L78.8173 50.2921C65.9514 45.0209 55.9189 62.1906 66.8276 70.8113L121.779 114.238C127.797 118.993 127.87 128.097 121.928 132.948L64.9544 179.466C54.208 188.24 64.4457 205.22 77.2215 199.812L230.967 134.731C240.791 130.573 240.711 116.621 230.839 112.577Z"
		fill="black"
		stroke="black"
	/>
	<path
		d="M230.839 94.5766L78.8173 32.2921C65.9514 27.0209 55.9189 44.1906 66.8276 52.8113L121.779 96.2377C127.797 100.993 127.87 110.097 121.928 114.948L64.9544 161.466C54.208 170.24 64.4457 187.22 77.2215 181.812L230.967 116.731C240.791 112.573 240.711 98.6213 230.839 94.5766Z"
		fill="#EA0747"
		stroke="black"
	/>
</svg>
